<svg width="1440" height="281" viewBox="0 0 1440 281" fill="none" xmlns="http://www.w3.org/2000/svg">
<g opacity="0.5">
<path opacity="0.5" d="M1072.62 89.4716C1266.82 134.995 1398.46 124.812 1440 114.03V250H0V81.0857C475.996 -75.2498 829.864 32.5678 1072.62 89.4716Z" fill="white"/>
<path d="M1072.62 115.686C1266.82 153.686 1398.46 145.186 1440 136.186V249.686H0V108.686C475.996 -21.8142 829.864 68.1858 1072.62 115.686Z" fill="white"/>
</g>
<path opacity="0.5" d="M367.383 120.472C173.18 165.995 41.5433 155.812 0 145.03V281H1440V112.086C964.004 -44.2498 610.136 63.5678 367.383 120.472Z" fill="white"/>
<path d="M367.383 146.686C173.18 184.686 41.5433 176.186 0 167.186V280.686H1440V139.686C964.004 9.18576 610.136 99.1858 367.383 146.686Z" fill="white"/>
</svg>
